<?xml version="1.0" encoding="utf-8"?>
<!-- Generator: Adobe Illustrator 16.0.0, SVG Export Plug-In . SVG Version: 6.00 Build 0)  -->
<!DOCTYPE svg PUBLIC "-//W3C//DTD SVG 1.1//EN" "http://www.w3.org/Graphics/SVG/1.1/DTD/svg11.dtd">
<svg version="1.1" id="Layer_1" xmlns="http://www.w3.org/2000/svg" xmlns:xlink="http://www.w3.org/1999/xlink" x="0px" y="0px"
	 width="231px" height="105px" viewBox="0 0 231 105" enable-background="new 0 0 231 105" xml:space="preserve">
<pattern  width="72" height="72" patternUnits="userSpaceOnUse" id="Unnamed_Pattern_2" viewBox="72.25 -72 72 72" overflow="visible">
	<g>
		<polygon fill="none" points="72.25,-72 144.25,-72 144.25,0 72.25,0 		"/>
		<polygon fill="#CF4327" points="72.25,-72 144.25,-72 144.25,0 72.25,0 		"/>
		<g>
			<defs>
				<rect id="SVGID_1_" x="72.25" y="-72" width="72" height="72"/>
			</defs>
			<clipPath id="SVGID_2_">
				<use xlink:href="#SVGID_1_"  overflow="visible"/>
			</clipPath>
			
				<line clip-path="url(#SVGID_2_)" fill="none" stroke="#A93624" stroke-width="2.16" x1="144" y1="-68.399" x2="216.5" y2="-68.399"/>
			<line clip-path="url(#SVGID_2_)" fill="none" stroke="#A93624" stroke-width="2.16" x1="144" y1="-54" x2="216.5" y2="-54"/>
			<line clip-path="url(#SVGID_2_)" fill="none" stroke="#A93624" stroke-width="2.16" x1="144" y1="-39.6" x2="216.5" y2="-39.6"/>
			<line clip-path="url(#SVGID_2_)" fill="none" stroke="#A93624" stroke-width="2.16" x1="144" y1="-25.2" x2="216.5" y2="-25.2"/>
			<line clip-path="url(#SVGID_2_)" fill="none" stroke="#A93624" stroke-width="2.16" x1="144" y1="-10.8" x2="216.5" y2="-10.8"/>
			<line clip-path="url(#SVGID_2_)" fill="none" stroke="#A93624" stroke-width="2.16" x1="144" y1="-61.2" x2="216.5" y2="-61.2"/>
			<line clip-path="url(#SVGID_2_)" fill="none" stroke="#A93624" stroke-width="2.16" x1="144" y1="-46.8" x2="216.5" y2="-46.8"/>
			
				<line clip-path="url(#SVGID_2_)" fill="none" stroke="#A93624" stroke-width="2.16" x1="144" y1="-32.399" x2="216.5" y2="-32.399"/>
			<line clip-path="url(#SVGID_2_)" fill="none" stroke="#A93624" stroke-width="2.16" x1="144" y1="-18" x2="216.5" y2="-18"/>
			<line clip-path="url(#SVGID_2_)" fill="none" stroke="#A93624" stroke-width="2.16" x1="144" y1="-3.6" x2="216.5" y2="-3.6"/>
			
				<line clip-path="url(#SVGID_2_)" fill="none" stroke="#A93624" stroke-width="2.16" x1="72" y1="-68.399" x2="144.5" y2="-68.399"/>
			<line clip-path="url(#SVGID_2_)" fill="none" stroke="#A93624" stroke-width="2.16" x1="72" y1="-54" x2="144.5" y2="-54"/>
			<line clip-path="url(#SVGID_2_)" fill="none" stroke="#A93624" stroke-width="2.16" x1="72" y1="-39.6" x2="144.5" y2="-39.6"/>
			<line clip-path="url(#SVGID_2_)" fill="none" stroke="#A93624" stroke-width="2.16" x1="72" y1="-25.2" x2="144.5" y2="-25.2"/>
			<line clip-path="url(#SVGID_2_)" fill="none" stroke="#A93624" stroke-width="2.16" x1="72" y1="-10.8" x2="144.5" y2="-10.8"/>
			<line clip-path="url(#SVGID_2_)" fill="none" stroke="#A93624" stroke-width="2.16" x1="72" y1="-61.2" x2="144.5" y2="-61.2"/>
			<line clip-path="url(#SVGID_2_)" fill="none" stroke="#A93624" stroke-width="2.16" x1="72" y1="-46.8" x2="144.5" y2="-46.8"/>
			
				<line clip-path="url(#SVGID_2_)" fill="none" stroke="#A93624" stroke-width="2.16" x1="72" y1="-32.399" x2="144.5" y2="-32.399"/>
			<line clip-path="url(#SVGID_2_)" fill="none" stroke="#A93624" stroke-width="2.16" x1="72" y1="-18" x2="144.5" y2="-18"/>
			<line clip-path="url(#SVGID_2_)" fill="none" stroke="#A93624" stroke-width="2.16" x1="72" y1="-3.6" x2="144.5" y2="-3.6"/>
			
				<line clip-path="url(#SVGID_2_)" fill="none" stroke="#A93624" stroke-width="2.16" x1="0" y1="-68.399" x2="72.5" y2="-68.399"/>
			<line clip-path="url(#SVGID_2_)" fill="none" stroke="#A93624" stroke-width="2.16" x1="0" y1="-54" x2="72.5" y2="-54"/>
			<line clip-path="url(#SVGID_2_)" fill="none" stroke="#A93624" stroke-width="2.16" x1="0" y1="-39.6" x2="72.5" y2="-39.6"/>
			<line clip-path="url(#SVGID_2_)" fill="none" stroke="#A93624" stroke-width="2.16" x1="0" y1="-25.2" x2="72.5" y2="-25.2"/>
			<line clip-path="url(#SVGID_2_)" fill="none" stroke="#A93624" stroke-width="2.16" x1="0" y1="-10.8" x2="72.5" y2="-10.8"/>
			<line clip-path="url(#SVGID_2_)" fill="none" stroke="#A93624" stroke-width="2.16" x1="0" y1="-61.2" x2="72.5" y2="-61.2"/>
			<line clip-path="url(#SVGID_2_)" fill="none" stroke="#A93624" stroke-width="2.16" x1="0" y1="-46.8" x2="72.5" y2="-46.8"/>
			
				<line clip-path="url(#SVGID_2_)" fill="none" stroke="#A93624" stroke-width="2.16" x1="0" y1="-32.399" x2="72.5" y2="-32.399"/>
			<line clip-path="url(#SVGID_2_)" fill="none" stroke="#A93624" stroke-width="2.16" x1="0" y1="-18" x2="72.5" y2="-18"/>
			<line clip-path="url(#SVGID_2_)" fill="none" stroke="#A93624" stroke-width="2.16" x1="0" y1="-3.6" x2="72.5" y2="-3.6"/>
		</g>
	</g>
</pattern>
<pattern  id="SVGID_3_" xlink:href="#Unnamed_Pattern_2" patternTransform="matrix(0.8 0 0 -0.8 -1528.1499 -1646.3999)">
</pattern>
<rect fill="url(#SVGID_3_)" width="231" height="105"/>
</svg>
