<?xml version="1.0" encoding="utf-8"?>
<!-- Generator: Adobe Illustrator 16.0.0, SVG Export Plug-In . SVG Version: 6.00 Build 0)  -->
<!DOCTYPE svg PUBLIC "-//W3C//DTD SVG 1.1//EN" "http://www.w3.org/Graphics/SVG/1.1/DTD/svg11.dtd">
<svg version="1.1" id="Layer_1" xmlns="http://www.w3.org/2000/svg" xmlns:xlink="http://www.w3.org/1999/xlink" x="0px" y="0px"
	 width="231px" height="105px" viewBox="0 0 231 105" enable-background="new 0 0 231 105" xml:space="preserve">
<pattern  x="-384" y="303" width="28.799" height="28.801" patternUnits="userSpaceOnUse" id="SVGID_3_" viewBox="2.879 -31.681 28.799 28.801" overflow="visible">
	<g>
		<polygon fill="none" points="2.879,-2.88 31.678,-2.88 31.678,-31.682 2.879,-31.682 		"/>
		<g>
			<polygon fill="none" points="2.879,-2.88 31.679,-2.88 31.679,-31.682 2.879,-31.682 			"/>
			<polygon fill="#36413F" points="2.879,-2.88 31.678,-2.88 31.678,-31.682 2.879,-31.682 			"/>
			<g>
				<g>
					<defs>
						<rect id="SVGID_1_" x="2.879" y="-31.682" width="28.799" height="28.802"/>
					</defs>
					<clipPath id="SVGID_2_">
						<use xlink:href="#SVGID_1_"  overflow="visible"/>
					</clipPath>
					<path clip-path="url(#SVGID_2_)" fill="#3F5F97" d="M31.678,0c1.59,0,2.881-1.29,2.881-2.88c0-1.593-1.291-2.88-2.881-2.88
						c-1.59,0-2.879,1.287-2.879,2.88C28.799-1.29,30.088,0,31.678,0"/>
				</g>
				<g>
					<defs>
						<rect id="SVGID_4_" x="2.879" y="-31.682" width="28.799" height="28.802"/>
					</defs>
					<clipPath id="SVGID_5_">
						<use xlink:href="#SVGID_4_"  overflow="visible"/>
					</clipPath>
					<path clip-path="url(#SVGID_5_)" fill="#3F5F97" d="M17.279,0c1.589,0,2.88-1.29,2.88-2.88c0-1.593-1.291-2.88-2.88-2.88
						c-1.59,0-2.879,1.287-2.879,2.88C14.4-1.29,15.689,0,17.279,0"/>
				</g>
				<g>
					<defs>
						<rect id="SVGID_6_" x="2.879" y="-31.682" width="28.799" height="28.802"/>
					</defs>
					<clipPath id="SVGID_7_">
						<use xlink:href="#SVGID_6_"  overflow="visible"/>
					</clipPath>
					<path clip-path="url(#SVGID_7_)" fill="#3F5F97" d="M31.678-14.4c1.59,0,2.881-1.289,2.881-2.881
						c0-1.591-1.291-2.88-2.881-2.88c-1.59,0-2.879,1.289-2.879,2.88C28.799-15.689,30.088-14.4,31.678-14.4"/>
				</g>
				<g>
					<defs>
						<rect id="SVGID_8_" x="2.879" y="-31.682" width="28.799" height="28.802"/>
					</defs>
					<clipPath id="SVGID_9_">
						<use xlink:href="#SVGID_8_"  overflow="visible"/>
					</clipPath>
					<path clip-path="url(#SVGID_9_)" fill="#3F5F97" d="M17.279-14.4c1.589,0,2.88-1.289,2.88-2.881c0-1.591-1.291-2.88-2.88-2.88
						c-1.59,0-2.879,1.289-2.879,2.88C14.4-15.689,15.689-14.4,17.279-14.4"/>
				</g>
				<g>
					<defs>
						<rect id="SVGID_10_" x="2.879" y="-31.682" width="28.799" height="28.802"/>
					</defs>
					<clipPath id="SVGID_11_">
						<use xlink:href="#SVGID_10_"  overflow="visible"/>
					</clipPath>
					<path clip-path="url(#SVGID_11_)" fill="#3F5F97" d="M10.08-7.201c1.59,0,2.881-1.29,2.881-2.88c0-1.591-1.291-2.88-2.881-2.88
						c-1.591,0-2.88,1.289-2.88,2.88C7.2-8.491,8.489-7.201,10.08-7.201"/>
				</g>
				<g>
					<defs>
						<rect id="SVGID_12_" x="2.879" y="-31.682" width="28.799" height="28.802"/>
					</defs>
					<clipPath id="SVGID_13_">
						<use xlink:href="#SVGID_12_"  overflow="visible"/>
					</clipPath>
					<path clip-path="url(#SVGID_13_)" fill="#3F5F97" d="M24.479-7.201c1.59,0,2.879-1.29,2.879-2.88
						c0-1.591-1.289-2.88-2.879-2.88c-1.592,0-2.881,1.289-2.881,2.88C21.598-8.491,22.887-7.201,24.479-7.201"/>
				</g>
				<g>
					<defs>
						<rect id="SVGID_14_" x="2.879" y="-31.682" width="28.799" height="28.802"/>
					</defs>
					<clipPath id="SVGID_15_">
						<use xlink:href="#SVGID_14_"  overflow="visible"/>
					</clipPath>
					<path clip-path="url(#SVGID_15_)" fill="#3F5F97" d="M10.08-21.602c1.59,0,2.881-1.289,2.881-2.879s-1.291-2.881-2.881-2.881
						c-1.591,0-2.88,1.291-2.88,2.881S8.489-21.602,10.08-21.602"/>
				</g>
				<g>
					<defs>
						<rect id="SVGID_16_" x="2.879" y="-31.682" width="28.799" height="28.802"/>
					</defs>
					<clipPath id="SVGID_17_">
						<use xlink:href="#SVGID_16_"  overflow="visible"/>
					</clipPath>
					<path clip-path="url(#SVGID_17_)" fill="#3F5F97" d="M24.479-21.602c1.59,0,2.879-1.289,2.879-2.879s-1.289-2.881-2.879-2.881
						c-1.592,0-2.881,1.291-2.881,2.881S22.887-21.602,24.479-21.602"/>
				</g>
				<g>
					<defs>
						<rect id="SVGID_18_" x="2.879" y="-31.682" width="28.799" height="28.802"/>
					</defs>
					<clipPath id="SVGID_19_">
						<use xlink:href="#SVGID_18_"  overflow="visible"/>
					</clipPath>
					<path clip-path="url(#SVGID_19_)" fill="#3F5F97" d="M2.879,0C4.469,0,5.76-1.29,5.76-2.88c0-1.593-1.291-2.88-2.881-2.88
						C1.289-5.76,0-4.473,0-2.88C0-1.29,1.289,0,2.879,0"/>
				</g>
				<g>
					<defs>
						<rect id="SVGID_20_" x="2.879" y="-31.682" width="28.799" height="28.802"/>
					</defs>
					<clipPath id="SVGID_21_">
						<use xlink:href="#SVGID_20_"  overflow="visible"/>
					</clipPath>
					<path clip-path="url(#SVGID_21_)" fill="#3F5F97" d="M2.879-14.4c1.59,0,2.881-1.289,2.881-2.881
						c0-1.591-1.291-2.88-2.881-2.88c-1.59,0-2.879,1.289-2.879,2.88C0-15.689,1.289-14.4,2.879-14.4"/>
				</g>
				<g>
					<defs>
						<rect id="SVGID_22_" x="2.879" y="-31.682" width="28.799" height="28.802"/>
					</defs>
					<clipPath id="SVGID_23_">
						<use xlink:href="#SVGID_22_"  overflow="visible"/>
					</clipPath>
					<path clip-path="url(#SVGID_23_)" fill="#3F5F97" d="M31.678-28.801c1.59,0,2.881-1.291,2.881-2.881
						c0-1.592-1.291-2.879-2.881-2.879c-1.59,0-2.879,1.287-2.879,2.879C28.799-30.092,30.088-28.801,31.678-28.801"/>
				</g>
				<g>
					<defs>
						<rect id="SVGID_24_" x="2.879" y="-31.682" width="28.799" height="28.802"/>
					</defs>
					<clipPath id="SVGID_25_">
						<use xlink:href="#SVGID_24_"  overflow="visible"/>
					</clipPath>
					<path clip-path="url(#SVGID_25_)" fill="#3F5F97" d="M17.279-28.801c1.589,0,2.88-1.291,2.88-2.881
						c0-1.592-1.291-2.879-2.88-2.879c-1.59,0-2.879,1.287-2.879,2.879C14.4-30.092,15.689-28.801,17.279-28.801"/>
				</g>
				<g>
					<defs>
						<rect id="SVGID_26_" x="2.879" y="-31.682" width="28.799" height="28.802"/>
					</defs>
					<clipPath id="SVGID_27_">
						<use xlink:href="#SVGID_26_"  overflow="visible"/>
					</clipPath>
					<path clip-path="url(#SVGID_27_)" fill="#3F5F97" d="M2.879-28.801c1.59,0,2.881-1.291,2.881-2.881
						c0-1.592-1.291-2.879-2.881-2.879C1.289-34.561,0-33.273,0-31.682C0-30.092,1.289-28.801,2.879-28.801"/>
				</g>
			</g>
		</g>
	</g>
</pattern>
<pattern  id="SVGID_28_" xlink:href="#SVGID_3_" patternTransform="matrix(0.7 0 0 0.7 -4488.125 469.1211)">
</pattern>
<rect fill="url(#SVGID_28_)" width="231" height="105"/>
</svg>
