<?xml version="1.0" encoding="utf-8"?>
<!-- Generator: Adobe Illustrator 16.0.0, SVG Export Plug-In . SVG Version: 6.00 Build 0)  -->
<!DOCTYPE svg PUBLIC "-//W3C//DTD SVG 1.1//EN" "http://www.w3.org/Graphics/SVG/1.1/DTD/svg11.dtd">
<svg version="1.1" id="Layer_1" xmlns="http://www.w3.org/2000/svg" xmlns:xlink="http://www.w3.org/1999/xlink" x="0px" y="0px"
	 width="138px" height="105px" viewBox="0 0 138 105" enable-background="new 0 0 138 105" xml:space="preserve">
<pattern  width="72" height="72" patternUnits="userSpaceOnUse" id="Unnamed_Pattern_3" viewBox="72.25 -144.25 72 72" overflow="visible">
	<g>
		<polygon fill="none" points="72.25,-144.25 144.25,-144.25 144.25,-72.25 72.25,-72.25 		"/>
		<polygon fill="#CF7C29" points="72.25,-144.25 144.25,-144.25 144.25,-72.25 72.25,-72.25 		"/>
		<g>
			<defs>
				<rect id="SVGID_1_" x="72.25" y="-144.25" width="72" height="72"/>
			</defs>
			<clipPath id="SVGID_2_">
				<use xlink:href="#SVGID_1_"  overflow="visible"/>
			</clipPath>
			<line clip-path="url(#SVGID_2_)" fill="none" stroke="#BABFB3" stroke-width="2" x1="78.25" y1="-144" x2="78.25" y2="-216.5"/>
			
				<line clip-path="url(#SVGID_2_)" fill="none" stroke="#BABFB3" stroke-width="2" x1="102.25" y1="-144" x2="102.25" y2="-216.5"/>
			
				<line clip-path="url(#SVGID_2_)" fill="none" stroke="#BABFB3" stroke-width="2" x1="126.25" y1="-144" x2="126.25" y2="-216.5"/>
			<line clip-path="url(#SVGID_2_)" fill="none" stroke="#BABFB3" stroke-width="2" x1="90.25" y1="-144" x2="90.25" y2="-216.5"/>
			
				<line clip-path="url(#SVGID_2_)" fill="none" stroke="#BABFB3" stroke-width="2" x1="114.25" y1="-144" x2="114.25" y2="-216.5"/>
			
				<line clip-path="url(#SVGID_2_)" fill="none" stroke="#BABFB3" stroke-width="2" x1="138.25" y1="-144" x2="138.25" y2="-216.5"/>
			
				<line clip-path="url(#SVGID_2_)" fill="none" stroke="#BABFB3" stroke-width="2" x1="144" y1="-138.25" x2="216.5" y2="-138.25"/>
			
				<line clip-path="url(#SVGID_2_)" fill="none" stroke="#BABFB3" stroke-width="2" x1="144" y1="-114.25" x2="216.5" y2="-114.25"/>
			<line clip-path="url(#SVGID_2_)" fill="none" stroke="#BABFB3" stroke-width="2" x1="144" y1="-90.25" x2="216.5" y2="-90.25"/>
			
				<line clip-path="url(#SVGID_2_)" fill="none" stroke="#BABFB3" stroke-width="2" x1="144" y1="-126.25" x2="216.5" y2="-126.25"/>
			
				<line clip-path="url(#SVGID_2_)" fill="none" stroke="#BABFB3" stroke-width="2" x1="144" y1="-102.25" x2="216.5" y2="-102.25"/>
			<line clip-path="url(#SVGID_2_)" fill="none" stroke="#BABFB3" stroke-width="2" x1="144" y1="-78.25" x2="216.5" y2="-78.25"/>
			<line clip-path="url(#SVGID_2_)" fill="none" stroke="#BE6858" stroke-width="2" x1="78.25" y1="-72" x2="78.25" y2="-144.5"/>
			<line clip-path="url(#SVGID_2_)" fill="none" stroke="#BE6858" stroke-width="2" x1="102.25" y1="-72" x2="102.25" y2="-144.5"/>
			<line clip-path="url(#SVGID_2_)" fill="none" stroke="#BE6858" stroke-width="2" x1="126.25" y1="-72" x2="126.25" y2="-144.5"/>
			<line clip-path="url(#SVGID_2_)" fill="none" stroke="#BE6858" stroke-width="2" x1="72" y1="-138.25" x2="144.5" y2="-138.25"/>
			<line clip-path="url(#SVGID_2_)" fill="none" stroke="#BE6858" stroke-width="2" x1="72" y1="-114.25" x2="144.5" y2="-114.25"/>
			<line clip-path="url(#SVGID_2_)" fill="none" stroke="#BE6858" stroke-width="2" x1="72" y1="-90.25" x2="144.5" y2="-90.25"/>
			<line clip-path="url(#SVGID_2_)" fill="none" stroke="#BE6858" stroke-width="2" x1="72" y1="-126.25" x2="144.5" y2="-126.25"/>
			<line clip-path="url(#SVGID_2_)" fill="none" stroke="#BE6858" stroke-width="2" x1="72" y1="-102.25" x2="144.5" y2="-102.25"/>
			<line clip-path="url(#SVGID_2_)" fill="none" stroke="#BE6858" stroke-width="2" x1="72" y1="-78.25" x2="144.5" y2="-78.25"/>
			<line clip-path="url(#SVGID_2_)" fill="none" stroke="#BE6858" stroke-width="2" x1="90.25" y1="-72" x2="90.25" y2="-144.5"/>
			<line clip-path="url(#SVGID_2_)" fill="none" stroke="#BE6858" stroke-width="2" x1="114.25" y1="-72" x2="114.25" y2="-144.5"/>
			<line clip-path="url(#SVGID_2_)" fill="none" stroke="#BE6858" stroke-width="2" x1="138.25" y1="-72" x2="138.25" y2="-144.5"/>
			<line clip-path="url(#SVGID_2_)" fill="none" stroke="#BABFB3" stroke-width="2" x1="0" y1="-138.25" x2="72.5" y2="-138.25"/>
			<line clip-path="url(#SVGID_2_)" fill="none" stroke="#BABFB3" stroke-width="2" x1="0" y1="-114.25" x2="72.5" y2="-114.25"/>
			<line clip-path="url(#SVGID_2_)" fill="none" stroke="#BABFB3" stroke-width="2" x1="0" y1="-90.25" x2="72.5" y2="-90.25"/>
			<line clip-path="url(#SVGID_2_)" fill="none" stroke="#BABFB3" stroke-width="2" x1="0" y1="-126.25" x2="72.5" y2="-126.25"/>
			<line clip-path="url(#SVGID_2_)" fill="none" stroke="#BABFB3" stroke-width="2" x1="0" y1="-102.25" x2="72.5" y2="-102.25"/>
			<line clip-path="url(#SVGID_2_)" fill="none" stroke="#BABFB3" stroke-width="2" x1="0" y1="-78.25" x2="72.5" y2="-78.25"/>
			<line clip-path="url(#SVGID_2_)" fill="none" stroke="#BABFB3" stroke-width="2" x1="78.25" y1="0" x2="78.25" y2="-72.5"/>
			<line clip-path="url(#SVGID_2_)" fill="none" stroke="#BABFB3" stroke-width="2" x1="102.25" y1="0" x2="102.25" y2="-72.5"/>
			<line clip-path="url(#SVGID_2_)" fill="none" stroke="#BABFB3" stroke-width="2" x1="126.25" y1="0" x2="126.25" y2="-72.5"/>
			<line clip-path="url(#SVGID_2_)" fill="none" stroke="#BABFB3" stroke-width="2" x1="90.25" y1="0" x2="90.25" y2="-72.5"/>
			<line clip-path="url(#SVGID_2_)" fill="none" stroke="#BABFB3" stroke-width="2" x1="114.25" y1="0" x2="114.25" y2="-72.5"/>
			<line clip-path="url(#SVGID_2_)" fill="none" stroke="#BABFB3" stroke-width="2" x1="138.25" y1="0" x2="138.25" y2="-72.5"/>
		</g>
	</g>
</pattern>
<pattern  id="SVGID_3_" xlink:href="#Unnamed_Pattern_3" patternTransform="matrix(0.5 0 0 -0.5 -3954.125 -4585.875)">
</pattern>
<rect fill="url(#SVGID_3_)" width="138" height="105"/>
</svg>
