<?xml version="1.0" encoding="utf-8"?>
<!-- Generator: Adobe Illustrator 16.0.0, SVG Export Plug-In . SVG Version: 6.00 Build 0)  -->
<!DOCTYPE svg PUBLIC "-//W3C//DTD SVG 1.1//EN" "http://www.w3.org/Graphics/SVG/1.1/DTD/svg11.dtd">
<svg version="1.1" id="Layer_1" xmlns="http://www.w3.org/2000/svg" xmlns:xlink="http://www.w3.org/1999/xlink" x="0px" y="0px"
	 width="320px" height="20px" viewBox="0 0 320 20" enable-background="new 0 0 320 20" xml:space="preserve">
<polygon fill="#FFFFFF" points="312.033,9.566 304.066,0.327 295.576,9.566 287.083,0.327 278.594,9.566 270.105,0.327 
	261.619,9.566 253.132,0.327 244.648,9.566 236.158,0.327 227.67,9.566 219.184,0.327 210.695,9.566 202.209,0.327 193.722,9.566 
	185.238,0.327 176.751,9.566 168.268,0.327 159.782,9.566 151.299,0.327 142.813,9.566 134.333,0.327 125.848,9.566 117.366,0.327 
	108.886,9.566 100.402,0.327 91.92,9.566 83.444,0.327 74.961,9.566 66.477,0.327 57.998,9.566 49.524,0.327 41.06,9.566 
	32.615,0.327 24.209,9.566 15.884,0.327 7.714,9.566 0,0.327 0,20 320,20 320,0.327 "/>
</svg>
