<?xml version="1.0" encoding="utf-8"?>
<!-- Generator: Adobe Illustrator 16.0.0, SVG Export Plug-In . SVG Version: 6.00 Build 0)  -->
<!DOCTYPE svg PUBLIC "-//W3C//DTD SVG 1.1//EN" "http://www.w3.org/Graphics/SVG/1.1/DTD/svg11.dtd">
<svg version="1.1" id="Layer_1" xmlns="http://www.w3.org/2000/svg" xmlns:xlink="http://www.w3.org/1999/xlink" x="0px" y="0px"
	 width="189px" height="56px" viewBox="0 0 189 56" enable-background="new 0 0 189 56" xml:space="preserve">
<pattern  width="48" height="48" patternUnits="userSpaceOnUse" id="Unnamed_Pattern_4" viewBox="5.3 -53.301 48 48" overflow="visible">
	<g>
		<polygon fill="none" points="5.3,-53.301 53.3,-53.301 53.3,-5.301 5.3,-5.301 		"/>
		<polygon fill="#6090B6" points="5.3,-53.301 53.3,-53.301 53.3,-5.301 5.3,-5.301 		"/>
		<g>
			<defs>
				<rect id="SVGID_1_" x="5.3" y="-53.301" width="48" height="48"/>
			</defs>
			<clipPath id="SVGID_2_">
				<use xlink:href="#SVGID_1_"  overflow="visible"/>
			</clipPath>
			<path clip-path="url(#SVGID_2_)" fill="none" stroke="#3F5F97" stroke-miterlimit="10" d="M29.3-58.101c2.65,0,4.8,2.148,4.8,4.8
				c0,2.65-2.15,4.801-4.8,4.801c-2.651,0-4.8-2.15-4.8-4.801C24.5-55.952,26.649-58.101,29.3-58.101z"/>
			<path clip-path="url(#SVGID_2_)" fill="none" stroke="#3F5F97" stroke-miterlimit="10" d="M53.3-58.101c2.65,0,4.8,2.148,4.8,4.8
				c0,2.65-2.15,4.801-4.8,4.801c-2.651,0-4.8-2.15-4.8-4.801C48.5-55.952,50.649-58.101,53.3-58.101z"/>
			<path clip-path="url(#SVGID_2_)" fill="none" stroke="#3F5F97" stroke-miterlimit="10" d="M29.3-34.101c2.65,0,4.8,2.148,4.8,4.8
				c0,2.65-2.15,4.8-4.8,4.8c-2.651,0-4.8-2.149-4.8-4.8C24.5-31.952,26.649-34.101,29.3-34.101z"/>
			<path clip-path="url(#SVGID_2_)" fill="none" stroke="#3F5F97" stroke-miterlimit="10" d="M53.3-34.101c2.65,0,4.8,2.148,4.8,4.8
				c0,2.65-2.15,4.8-4.8,4.8c-2.651,0-4.8-2.149-4.8-4.8C48.5-31.952,50.649-34.101,53.3-34.101z"/>
			<path clip-path="url(#SVGID_2_)" fill="none" stroke="#3F5F97" stroke-miterlimit="10" d="M41.3-46.101c2.65,0,4.8,2.148,4.8,4.8
				c0,2.65-2.15,4.801-4.8,4.801c-2.651,0-4.8-2.15-4.8-4.801C36.5-43.952,38.649-46.101,41.3-46.101z"/>
			<path clip-path="url(#SVGID_2_)" fill="none" stroke="#3F5F97" stroke-miterlimit="10" d="M17.3-46.101c2.65,0,4.8,2.148,4.8,4.8
				c0,2.65-2.15,4.801-4.8,4.801c-2.651,0-4.8-2.15-4.8-4.801C12.5-43.952,14.649-46.101,17.3-46.101z"/>
			<path clip-path="url(#SVGID_2_)" fill="none" stroke="#3F5F97" stroke-miterlimit="10" d="M41.3-22.101c2.65,0,4.8,2.148,4.8,4.8
				c0,2.65-2.15,4.8-4.8,4.8c-2.651,0-4.8-2.149-4.8-4.8C36.5-19.952,38.649-22.101,41.3-22.101z"/>
			<path clip-path="url(#SVGID_2_)" fill="none" stroke="#3F5F97" stroke-miterlimit="10" d="M17.3-22.101c2.65,0,4.8,2.148,4.8,4.8
				c0,2.65-2.15,4.8-4.8,4.8c-2.651,0-4.8-2.149-4.8-4.8C12.5-19.952,14.649-22.101,17.3-22.101z"/>
			<path clip-path="url(#SVGID_2_)" fill="none" stroke="#3F5F97" stroke-miterlimit="10" d="M5.3-58.101c2.65,0,4.8,2.148,4.8,4.8
				c0,2.65-2.15,4.801-4.8,4.801c-2.651,0-4.8-2.15-4.8-4.801C0.5-55.952,2.649-58.101,5.3-58.101z"/>
			<path clip-path="url(#SVGID_2_)" fill="none" stroke="#3F5F97" stroke-miterlimit="10" d="M5.3-34.101c2.65,0,4.8,2.148,4.8,4.8
				c0,2.65-2.15,4.8-4.8,4.8c-2.651,0-4.8-2.149-4.8-4.8C0.5-31.952,2.649-34.101,5.3-34.101z"/>
			<path clip-path="url(#SVGID_2_)" fill="none" stroke="#3F5F97" stroke-miterlimit="10" d="M29.3-10.101c2.65,0,4.8,2.148,4.8,4.8
				c0,2.65-2.15,4.801-4.8,4.801c-2.651,0-4.8-2.15-4.8-4.801C24.5-7.952,26.649-10.101,29.3-10.101z"/>
			<path clip-path="url(#SVGID_2_)" fill="none" stroke="#3F5F97" stroke-miterlimit="10" d="M53.3-10.101c2.65,0,4.8,2.148,4.8,4.8
				c0,2.65-2.15,4.801-4.8,4.801c-2.651,0-4.8-2.15-4.8-4.801C48.5-7.952,50.649-10.101,53.3-10.101z"/>
			<path clip-path="url(#SVGID_2_)" fill="none" stroke="#3F5F97" stroke-miterlimit="10" d="M5.3-10.101c2.65,0,4.8,2.148,4.8,4.8
				C10.1-2.65,7.95-0.5,5.3-0.5c-2.651,0-4.8-2.15-4.8-4.801C0.5-7.952,2.649-10.101,5.3-10.101z"/>
		</g>
	</g>
</pattern>
<pattern  id="SVGID_3_" xlink:href="#Unnamed_Pattern_4" patternTransform="matrix(0.6 0 0 -0.6 -3234.1797 -3571.6309)">
</pattern>
<rect fill="url(#SVGID_3_)" width="189" height="56"/>
</svg>
