<?xml version="1.0" encoding="utf-8"?>
<!-- Generator: Adobe Illustrator 16.0.0, SVG Export Plug-In . SVG Version: 6.00 Build 0)  -->
<!DOCTYPE svg PUBLIC "-//W3C//DTD SVG 1.1//EN" "http://www.w3.org/Graphics/SVG/1.1/DTD/svg11.dtd">
<svg version="1.1" id="Layer_1" xmlns="http://www.w3.org/2000/svg" xmlns:xlink="http://www.w3.org/1999/xlink" x="0px" y="0px"
	 width="34.26px" height="34.48px" viewBox="0 0 34.26 34.48" enable-background="new 0 0 34.26 34.48" xml:space="preserve">
<g>
	<path fill="#FFFFFF" d="M31.414,2.847C28.783,0.217,24.808,0,20.621,0h-6.983C9.452,0,5.476,0.217,2.846,2.847
		C0.215,5.478-0.002,9.454-0.002,13.639v7.203c0,4.188,0.217,8.162,2.848,10.791c2.63,2.631,6.606,2.848,10.792,2.848h6.983
		c4.187,0,8.162-0.217,10.793-2.848c2.629-2.629,2.848-6.604,2.848-10.791v-7.203C34.262,9.454,34.043,5.478,31.414,2.847
		 M31.205,20.842c0,3.52-0.148,6.828-1.953,8.631c-1.803,1.805-5.111,1.953-8.631,1.953h-6.983c-3.519,0-6.828-0.148-8.632-1.953
		c-1.803-1.803-1.953-5.111-1.953-8.631v-7.203c0-3.519,0.15-6.827,1.953-8.631c1.804-1.804,5.113-1.953,8.632-1.953h6.983
		c3.52,0,6.828,0.149,8.631,1.953c1.805,1.804,1.953,5.112,1.953,8.631V20.842z"/>
	<path fill="#FFFFFF" d="M17.129,8.402c-4.874,0-8.838,3.965-8.838,8.839c0,4.873,3.964,8.839,8.838,8.839s8.839-3.967,8.839-8.839
		C25.968,12.367,22.003,8.402,17.129,8.402 M17.129,23.023c-3.188,0-5.783-2.594-5.783-5.783c0-3.189,2.596-5.783,5.783-5.783
		c3.189,0,5.784,2.594,5.784,5.783C22.913,20.43,20.318,23.023,17.129,23.023"/>
	<path fill="#FFFFFF" d="M26.35,5.837c-1.175,0-2.127,0.952-2.127,2.128c0,1.175,0.952,2.128,2.127,2.128s2.128-0.953,2.128-2.128
		C28.478,6.79,27.524,5.837,26.35,5.837"/>
</g>
</svg>
