<?xml version="1.0" encoding="utf-8"?>
<!-- Generator: Adobe Illustrator 16.0.0, SVG Export Plug-In . SVG Version: 6.00 Build 0)  -->
<!DOCTYPE svg PUBLIC "-//W3C//DTD SVG 1.1//EN" "http://www.w3.org/Graphics/SVG/1.1/DTD/svg11.dtd">
<svg version="1.1" id="Layer_1" xmlns="http://www.w3.org/2000/svg" xmlns:xlink="http://www.w3.org/1999/xlink" x="0px" y="0px"
	 width="283px" height="97px" viewBox="0 0 283 97" enable-background="new 0 0 283 97" xml:space="preserve">
<rect x="51.5" y="11.344" fill="#6E6F71" width="180" height="22"/>
<g>
	<path fill="#FFFFFF" d="M122.024,22.344c0,1.166-0.203,2.238-0.605,3.218c-0.403,0.979-0.961,1.825-1.674,2.537
		c-0.713,0.713-1.555,1.271-2.527,1.675c-0.971,0.402-2.026,0.604-3.163,0.604c-1.138,0-2.192-0.201-3.164-0.604
		c-0.972-0.404-1.814-0.962-2.527-1.675c-0.712-0.712-1.271-1.558-1.673-2.537c-0.404-0.979-0.605-2.052-0.605-3.218
		s0.201-2.239,0.605-3.218c0.402-0.979,0.961-1.825,1.673-2.537c0.713-0.713,1.555-1.271,2.527-1.674
		c0.972-0.403,2.026-0.604,3.164-0.604c1.137,0,2.192,0.201,3.163,0.604c0.972,0.403,1.814,0.961,2.527,1.674
		c0.713,0.712,1.271,1.559,1.674,2.537C121.821,20.104,122.024,21.178,122.024,22.344z M120.382,22.354
		c0-0.892-0.144-1.738-0.432-2.544c-0.288-0.805-0.705-1.513-1.252-2.124c-0.547-0.61-1.213-1.096-1.998-1.454
		c-0.785-0.359-1.667-0.54-2.645-0.54c-0.98,0-1.861,0.181-2.646,0.54c-0.785,0.358-1.45,0.844-1.997,1.454
		c-0.548,0.611-0.965,1.319-1.253,2.124c-0.288,0.806-0.432,1.652-0.432,2.544s0.144,1.739,0.432,2.544s0.705,1.51,1.253,2.113
		c0.547,0.604,1.212,1.085,1.997,1.445c0.785,0.359,1.666,0.539,2.646,0.539c0.978,0,1.86-0.18,2.645-0.539
		c0.785-0.36,1.451-0.842,1.998-1.445s0.964-1.309,1.252-2.113S120.382,23.246,120.382,22.354z"/>
	<path fill="#FFFFFF" d="M147.507,22.344c0,1.166-0.203,2.238-0.604,3.218c-0.404,0.979-0.961,1.825-1.675,2.537
		c-0.713,0.713-1.555,1.271-2.526,1.675c-0.972,0.402-2.026,0.604-3.163,0.604c-1.138,0-2.192-0.201-3.165-0.604
		c-0.972-0.404-1.814-0.962-2.527-1.675c-0.712-0.712-1.271-1.558-1.673-2.537c-0.404-0.979-0.605-2.052-0.605-3.218
		s0.201-2.239,0.605-3.218c0.402-0.979,0.961-1.825,1.673-2.537c0.713-0.713,1.555-1.271,2.527-1.674
		c0.972-0.403,2.026-0.604,3.165-0.604c1.137,0,2.191,0.201,3.163,0.604s1.813,0.961,2.526,1.674
		c0.714,0.712,1.271,1.559,1.675,2.537C147.304,20.104,147.507,21.178,147.507,22.344z M145.865,22.354
		c0-0.892-0.145-1.738-0.433-2.544c-0.288-0.805-0.705-1.513-1.252-2.124c-0.547-0.61-1.213-1.096-1.998-1.454
		c-0.785-0.359-1.667-0.54-2.645-0.54c-0.98,0-1.861,0.181-2.646,0.54c-0.785,0.358-1.45,0.844-1.997,1.454
		c-0.548,0.611-0.965,1.319-1.253,2.124c-0.288,0.806-0.432,1.652-0.432,2.544s0.144,1.739,0.432,2.544s0.705,1.51,1.253,2.113
		c0.547,0.604,1.212,1.085,1.997,1.445c0.785,0.359,1.666,0.539,2.646,0.539c0.978,0,1.859-0.18,2.645-0.539
		c0.785-0.36,1.451-0.842,1.998-1.445s0.964-1.309,1.252-2.113S145.865,23.246,145.865,22.354z"/>
	<path fill="#FFFFFF" d="M169.469,17.463c-0.533-0.562-1.167-0.996-1.9-1.307c-0.734-0.309-1.576-0.464-2.527-0.464
		c-0.979,0-1.86,0.18-2.646,0.54c-0.784,0.359-1.45,0.844-1.997,1.455c-0.548,0.61-0.969,1.318-1.263,2.123
		c-0.296,0.805-0.442,1.652-0.442,2.545c0,0.891,0.146,1.738,0.442,2.543c0.294,0.806,0.715,1.51,1.263,2.113
		c0.547,0.604,1.213,1.086,1.997,1.444c0.785,0.36,1.667,0.539,2.646,0.539c0.865,0,1.656-0.094,2.375-0.28
		c0.721-0.188,1.304-0.425,1.75-0.713v-4.643h-3.563v-1.382h5.118v6.905c-0.835,0.506-1.734,0.881-2.699,1.127
		s-1.965,0.367-3.002,0.367c-1.152,0-2.217-0.201-3.195-0.604c-0.979-0.403-1.821-0.961-2.527-1.674
		c-0.705-0.713-1.256-1.559-1.652-2.539c-0.396-0.978-0.593-2.051-0.593-3.217s0.201-2.238,0.604-3.218
		c0.402-0.979,0.961-1.824,1.674-2.538c0.711-0.712,1.555-1.27,2.525-1.673c0.973-0.402,2.027-0.604,3.164-0.604
		c1.225,0,2.289,0.183,3.196,0.549s1.685,0.874,2.333,1.524L169.469,17.463z"/>
	<rect x="183.117" y="14.698" fill="#FFFFFF" width="1.555" height="15.29"/>
	<polygon fill="#FFFFFF" points="198.493,28.605 206.678,28.605 206.678,29.988 196.938,29.988 196.938,14.699 206.418,14.699 
		206.418,16.081 198.493,16.081 198.493,21.329 205.9,21.329 205.9,22.71 198.493,22.71 	"/>
	<polygon fill="#FFFFFF" points="81.742,27.85 81.785,27.85 85.608,14.699 87.465,14.699 91.287,27.85 91.33,27.85 95.066,14.699 
		96.707,14.699 92.193,29.988 90.38,29.988 86.536,16.858 86.493,16.858 82.649,29.988 80.834,29.988 76.322,14.699 77.963,14.699 	
		"/>
</g>
<g>
	<polygon fill="#636467" points="50.657,44.984 40.895,77.906 31.084,44.984 28.308,44.984 18.696,77.887 8.94,44.984 6.286,44.984 
		17.339,82.221 20.115,82.221 29.704,49.444 39.484,82.221 42.258,82.221 53.31,44.984 	"/>
	<polygon fill="#636467" points="83.639,44.984 83.639,61.959 61.188,61.959 61.188,44.984 58.998,44.984 58.998,82.221 
		61.188,82.221 61.188,64.15 83.639,64.15 83.639,82.221 86.376,82.221 86.376,44.984 	"/>
	<path fill="#636467" d="M130.298,55.721c-0.95-2.366-2.283-4.434-3.961-6.146c-1.68-1.715-3.697-3.074-5.997-4.043
		c-2.301-0.969-4.848-1.459-7.568-1.459c-2.722,0-5.268,0.49-7.57,1.459c-2.299,0.969-4.317,2.328-5.996,4.043
		c-1.679,1.713-3.012,3.781-3.961,6.146c-0.949,2.361-1.43,4.99-1.43,7.809c0,2.82,0.481,5.447,1.43,7.809
		c0.948,2.365,2.281,4.434,3.961,6.147c1.68,1.716,3.707,3.075,6.024,4.044c2.317,0.967,4.854,1.457,7.542,1.457
		c2.687,0,5.224-0.49,7.542-1.457c2.316-0.969,4.342-2.328,6.023-4.044c1.678-1.713,3.011-3.78,3.961-6.147
		c0.949-2.362,1.43-4.989,1.43-7.809C131.728,60.711,131.247,58.084,130.298,55.721 M112.772,80.549
		c-2.462,0-4.726-0.443-6.728-1.318c-2.003-0.874-3.745-2.091-5.175-3.615c-1.431-1.527-2.554-3.345-3.335-5.4
		c-0.783-2.063-1.18-4.311-1.18-6.686c0-2.371,0.405-4.619,1.204-6.68c0.797-2.057,1.935-3.874,3.384-5.402
		c1.445-1.525,3.195-2.742,5.202-3.619c2.005-0.875,4.235-1.317,6.628-1.317s4.623,0.442,6.626,1.317
		c2.007,0.877,3.757,2.094,5.203,3.619c1.448,1.528,2.587,3.346,3.384,5.402c0.799,2.063,1.204,4.311,1.204,6.68
		c0,2.372-0.396,4.621-1.18,6.686c-0.782,2.057-1.904,3.873-3.335,5.4c-1.43,1.524-3.172,2.741-5.175,3.615
		C117.497,80.105,115.233,80.549,112.772,80.549"/>
	<polygon fill="#636467" points="172.285,44.984 157.314,77.842 142.344,44.984 138.945,44.984 138.945,82.221 141.682,82.221 
		141.682,50.016 156.352,82.221 158.176,82.221 172.895,49.898 172.895,82.221 175.633,82.221 175.633,44.984 	"/>
	<path fill="#636467" d="M205.883,49.987c-0.723-1.228-1.668-2.22-2.813-2.947c-1.119-0.71-2.387-1.268-3.766-1.569
		c-1.35-0.293-2.699-0.486-4.012-0.486h-10.352v37.236h2.738V64.697h8.266c1.471,0,2.885-0.288,4.201-0.71
		c1.334-0.427,2.52-1.097,3.52-1.92c1.012-0.831,1.828-1.901,2.422-3.146c0.596-1.244,0.898-2.697,0.898-4.302
		C206.986,52.795,206.615,51.23,205.883,49.987 M195.996,61.959h-8.316V47.723h8.064c1.041,0,2.105-0.002,3.166,0.25
		c1.031,0.248,1.975,0.588,2.799,1.138c0.803,0.534,1.469,1.229,1.979,2.129c0.504,0.89,0.76,2.019,0.76,3.388
		c0,1.348-0.244,2.504-0.725,3.45c-0.482,0.951-1.123,1.733-1.902,2.332c-0.789,0.606-1.699,0.952-2.707,1.228
		C198.078,61.918,197.029,61.959,195.996,61.959"/>
	<polygon fill="#636467" points="216.152,79.481 216.152,64.15 234.771,64.15 234.771,61.412 216.152,61.412 216.152,47.722 
		235.865,47.722 235.865,44.984 213.416,44.984 213.416,82.22 236.414,82.22 236.414,79.481 	"/>
	<path fill="#636467" d="M255.754,64.111c0.828-0.069,1.672-0.269,2.518-0.477c1.301-0.322,2.5-0.884,3.564-1.611
		c1.086-0.742,1.984-1.737,2.674-2.931c0.695-1.209,1.047-2.735,1.047-4.524c0-1.926-0.371-3.535-1.102-4.777
		c-0.725-1.232-1.674-2.219-2.82-2.93c-1.125-0.695-2.416-1.221-3.838-1.471c-1.375-0.238-2.748-0.406-4.08-0.406h-10.732V82.22
		h2.738V64.15h7.186l10.721,18.069h2.93L255.754,64.111z M245.723,47.722h7.393c1.285,0,2.566-0.015,3.803,0.21
		c1.195,0.217,2.262,0.535,3.17,1.073c0.875,0.521,1.594,1.213,2.129,2.12c0.531,0.902,0.801,2.053,0.801,3.452
		c0,2.296-0.754,4.13-2.311,5.368c-1.58,1.259-3.949,2.014-7.043,2.014h-7.941V47.722z"/>
	<path fill="#6E6F71" d="M268.863,78.263V78.24c0-2.143,1.736-3.947,3.924-3.947c2.211,0,3.928,1.781,3.928,3.925v0.022
		c0,2.144-1.738,3.948-3.928,3.948C270.576,82.188,268.863,80.406,268.863,78.263 M276.264,78.24v-0.022
		c0-1.918-1.49-3.497-3.477-3.497c-1.961,0-3.473,1.602-3.473,3.52v0.022c0,1.918,1.488,3.497,3.473,3.497
		C274.75,81.76,276.264,80.158,276.264,78.24 M271.322,76.188h1.758c0.814,0,1.469,0.428,1.469,1.219
		c0,0.653-0.43,1.037-0.971,1.195l1.105,1.534h-0.789l-0.994-1.444h-0.947v1.444h-0.631V76.188z M273.014,78.172
		c0.564,0,0.881-0.293,0.881-0.721c0-0.474-0.338-0.699-0.881-0.699h-1.061v1.42H273.014z"/>
</g>
</svg>
